<?xml version="1.0" encoding="UTF-8" standalone="no"?>
<!DOCTYPE svg PUBLIC "-//W3C//DTD SVG 1.1//EN"
 "http://www.w3.org/Graphics/SVG/1.1/DTD/svg11.dtd">
<!-- Generated by graphviz version 2.44.1 (20200629.0846)
 -->
<!-- Title: dependencies Pages: 1 -->
<svg width="2268pt" height="284pt"
 viewBox="0.00 0.00 2268.00 284.00" xmlns="http://www.w3.org/2000/svg" xmlns:xlink="http://www.w3.org/1999/xlink">
<g id="graph0" class="graph" transform="scale(1 1) rotate(0) translate(4 280)">
<title>dependencies</title>
<polygon fill="white" stroke="transparent" points="-4,4 -4,-280 2264,-280 2264,4 -4,4"/>
<text text-anchor="start" x="1109.01" y="-42.4" font-family="sans-serif" font-weight="bold" font-size="14.00">Legend</text>
<polygon fill="#ffffb3" stroke="transparent" points="896,-10 896,-30 916,-30 916,-10 896,-10"/>
<text text-anchor="start" x="919.63" y="-15.4" font-family="sans-serif" font-size="14.00"> &#160;Declarations</text>
<polygon fill="#8dd3c7" stroke="transparent" points="1009,-10 1009,-30 1029,-30 1029,-10 1009,-10"/>
<text text-anchor="start" x="1032.73" y="-15.4" font-family="sans-serif" font-size="14.00"> &#160;Module</text>
<polygon fill="#80b1d3" stroke="transparent" points="1095,-10 1095,-30 1115,-30 1115,-10 1095,-10"/>
<text text-anchor="start" x="1118.78" y="-15.4" font-family="sans-serif" font-size="14.00"> &#160;Bootstrap</text>
<polygon fill="#fdb462" stroke="transparent" points="1192,-10 1192,-30 1212,-30 1212,-10 1192,-10"/>
<text text-anchor="start" x="1215.67" y="-15.4" font-family="sans-serif" font-size="14.00"> &#160;Providers</text>
<polygon fill="#fb8072" stroke="transparent" points="1288,-10 1288,-30 1308,-30 1308,-10 1288,-10"/>
<text text-anchor="start" x="1311.73" y="-15.4" font-family="sans-serif" font-size="14.00"> &#160;Exports</text>
<g id="clust1" class="cluster">
<title>cluster_AppModule</title>
<polygon fill="none" stroke="black" stroke-dasharray="1,5" points="8,-70 8,-268 2252,-268 2252,-70 8,-70"/>
</g>
<g id="clust2" class="cluster">
<title>cluster_AppModule_declarations</title>
<polygon fill="none" stroke="black" points="168,-78 168,-130 2244,-130 2244,-78 168,-78"/>
</g>
<g id="clust17" class="cluster">
<title>cluster_AppModule_imports</title>
<polygon fill="none" stroke="black" points="16,-78 16,-130 160,-130 160,-78 16,-78"/>
</g>
<g id="clust19" class="cluster">
<title>cluster_AppModule_bootstrap</title>
<polygon fill="none" stroke="black" points="1075,-208 1075,-260 1199,-260 1199,-208 1075,-208"/>
</g>
<!-- AlertasComponent -->
<g id="node1" class="node">
<title>AlertasComponent</title>
<polygon fill="#ffffb3" stroke="black" points="2235.75,-122 2114.25,-122 2114.25,-86 2235.75,-86 2235.75,-122"/>
<text text-anchor="middle" x="2175" y="-99.8" font-family="Times,serif" font-size="14.00">AlertasComponent</text>
</g>
<!-- AppModule -->
<g id="node15" class="node">
<title>AppModule</title>
<polygon fill="#8dd3c7" stroke="black" points="1178.66,-187 1175.66,-191 1154.66,-191 1151.66,-187 1095.34,-187 1095.34,-151 1178.66,-151 1178.66,-187"/>
<text text-anchor="middle" x="1137" y="-164.8" font-family="Times,serif" font-size="14.00">AppModule</text>
</g>
<!-- AlertasComponent&#45;&gt;AppModule -->
<g id="edge1" class="edge">
<title>AlertasComponent&#45;&gt;AppModule</title>
<path fill="none" stroke="black" d="M2175,-122.32C2175,-145.66 2175,-183 2175,-183 2175,-183 1188.98,-183 1188.98,-183"/>
<polygon fill="black" stroke="black" points="1188.98,-179.5 1178.98,-183 1188.98,-186.5 1188.98,-179.5"/>
</g>
<!-- AppComponent -->
<g id="node2" class="node">
<title>AppComponent</title>
<polygon fill="#ffffb3" stroke="black" points="2095.94,-122 1990.06,-122 1990.06,-86 2095.94,-86 2095.94,-122"/>
<text text-anchor="middle" x="2043" y="-99.8" font-family="Times,serif" font-size="14.00">AppComponent</text>
</g>
<!-- AppComponent&#45;&gt;AppModule -->
<g id="edge2" class="edge">
<title>AppComponent&#45;&gt;AppModule</title>
<path fill="none" stroke="black" d="M2043,-122.29C2043,-144.21 2043,-178 2043,-178 2043,-178 1188.88,-178 1188.88,-178"/>
<polygon fill="black" stroke="black" points="1188.88,-174.5 1178.88,-178 1188.88,-181.5 1188.88,-174.5"/>
</g>
<!-- CadastroComponent -->
<g id="node3" class="node">
<title>CadastroComponent</title>
<polygon fill="#ffffb3" stroke="black" points="1972.59,-122 1841.41,-122 1841.41,-86 1972.59,-86 1972.59,-122"/>
<text text-anchor="middle" x="1907" y="-99.8" font-family="Times,serif" font-size="14.00">CadastroComponent</text>
</g>
<!-- CadastroComponent&#45;&gt;AppModule -->
<g id="edge3" class="edge">
<title>CadastroComponent&#45;&gt;AppModule</title>
<path fill="none" stroke="black" d="M1907,-122.03C1907,-142.77 1907,-174 1907,-174 1907,-174 1188.67,-174 1188.67,-174"/>
<polygon fill="black" stroke="black" points="1188.67,-170.5 1178.67,-174 1188.67,-177.5 1188.67,-170.5"/>
</g>
<!-- DeletePostagemComponent -->
<g id="node4" class="node">
<title>DeletePostagemComponent</title>
<polygon fill="#ffffb3" stroke="black" points="1823.3,-122 1650.7,-122 1650.7,-86 1823.3,-86 1823.3,-122"/>
<text text-anchor="middle" x="1737" y="-99.8" font-family="Times,serif" font-size="14.00">DeletePostagemComponent</text>
</g>
<!-- DeletePostagemComponent&#45;&gt;AppModule -->
<g id="edge4" class="edge">
<title>DeletePostagemComponent&#45;&gt;AppModule</title>
<path fill="none" stroke="black" d="M1737,-122.11C1737,-141.34 1737,-169 1737,-169 1737,-169 1188.71,-169 1188.71,-169"/>
<polygon fill="black" stroke="black" points="1188.71,-165.5 1178.71,-169 1188.71,-172.5 1188.71,-165.5"/>
</g>
<!-- DeleteTemaComponent -->
<g id="node5" class="node">
<title>DeleteTemaComponent</title>
<polygon fill="#ffffb3" stroke="black" points="1632.74,-122 1483.26,-122 1483.26,-86 1632.74,-86 1632.74,-122"/>
<text text-anchor="middle" x="1558" y="-99.8" font-family="Times,serif" font-size="14.00">DeleteTemaComponent</text>
</g>
<!-- DeleteTemaComponent&#45;&gt;AppModule -->
<g id="edge5" class="edge">
<title>DeleteTemaComponent&#45;&gt;AppModule</title>
<path fill="none" stroke="black" d="M1558,-122.3C1558,-140.27 1558,-165 1558,-165 1558,-165 1188.91,-165 1188.91,-165"/>
<polygon fill="black" stroke="black" points="1188.91,-161.5 1178.91,-165 1188.91,-168.5 1188.91,-161.5"/>
</g>
<!-- Feed2Component -->
<g id="node6" class="node">
<title>Feed2Component</title>
<polygon fill="#ffffb3" stroke="black" points="1464.55,-122 1349.45,-122 1349.45,-86 1464.55,-86 1464.55,-122"/>
<text text-anchor="middle" x="1407" y="-99.8" font-family="Times,serif" font-size="14.00">Feed2Component</text>
</g>
<!-- Feed2Component&#45;&gt;AppModule -->
<g id="edge6" class="edge">
<title>Feed2Component&#45;&gt;AppModule</title>
<path fill="none" stroke="black" d="M1407,-122.03C1407,-138.4 1407,-160 1407,-160 1407,-160 1188.89,-160 1188.89,-160"/>
<polygon fill="black" stroke="black" points="1188.89,-156.5 1178.89,-160 1188.89,-163.5 1188.89,-156.5"/>
</g>
<!-- FooterComponent -->
<g id="node7" class="node">
<title>FooterComponent</title>
<polygon fill="#ffffb3" stroke="black" points="1330.88,-122 1213.12,-122 1213.12,-86 1330.88,-86 1330.88,-122"/>
<text text-anchor="middle" x="1272" y="-99.8" font-family="Times,serif" font-size="14.00">FooterComponent</text>
</g>
<!-- FooterComponent&#45;&gt;AppModule -->
<g id="edge7" class="edge">
<title>FooterComponent&#45;&gt;AppModule</title>
<path fill="none" stroke="black" d="M1272,-122.19C1272,-137.18 1272,-156 1272,-156 1272,-156 1188.97,-156 1188.97,-156"/>
<polygon fill="black" stroke="black" points="1188.97,-152.5 1178.97,-156 1188.97,-159.5 1188.97,-152.5"/>
</g>
<!-- HomeComponent -->
<g id="node8" class="node">
<title>HomeComponent</title>
<polygon fill="#ffffb3" stroke="black" points="1194.55,-122 1079.45,-122 1079.45,-86 1194.55,-86 1194.55,-122"/>
<text text-anchor="middle" x="1137" y="-99.8" font-family="Times,serif" font-size="14.00">HomeComponent</text>
</g>
<!-- HomeComponent&#45;&gt;AppModule -->
<g id="edge8" class="edge">
<title>HomeComponent&#45;&gt;AppModule</title>
<path fill="none" stroke="black" d="M1137,-122.11C1137,-122.11 1137,-140.99 1137,-140.99"/>
<polygon fill="black" stroke="black" points="1133.5,-140.99 1137,-150.99 1140.5,-140.99 1133.5,-140.99"/>
</g>
<!-- LoginComponent -->
<g id="node9" class="node">
<title>LoginComponent</title>
<polygon fill="#ffffb3" stroke="black" points="1061.28,-122 946.72,-122 946.72,-86 1061.28,-86 1061.28,-122"/>
<text text-anchor="middle" x="1004" y="-99.8" font-family="Times,serif" font-size="14.00">LoginComponent</text>
</g>
<!-- LoginComponent&#45;&gt;AppModule -->
<g id="edge9" class="edge">
<title>LoginComponent&#45;&gt;AppModule</title>
<path fill="none" stroke="black" d="M1004,-122.19C1004,-137.18 1004,-156 1004,-156 1004,-156 1085.28,-156 1085.28,-156"/>
<polygon fill="black" stroke="black" points="1085.28,-159.5 1095.28,-156 1085.28,-152.5 1085.28,-159.5"/>
</g>
<!-- NavbarComponent -->
<g id="node10" class="node">
<title>NavbarComponent</title>
<polygon fill="#ffffb3" stroke="black" points="928.03,-122 805.97,-122 805.97,-86 928.03,-86 928.03,-122"/>
<text text-anchor="middle" x="867" y="-99.8" font-family="Times,serif" font-size="14.00">NavbarComponent</text>
</g>
<!-- NavbarComponent&#45;&gt;AppModule -->
<g id="edge10" class="edge">
<title>NavbarComponent&#45;&gt;AppModule</title>
<path fill="none" stroke="black" d="M867,-122.03C867,-138.4 867,-160 867,-160 867,-160 1085.11,-160 1085.11,-160"/>
<polygon fill="black" stroke="black" points="1085.11,-163.5 1095.11,-160 1085.11,-156.5 1085.11,-163.5"/>
</g>
<!-- PostTemaComponent -->
<g id="node11" class="node">
<title>PostTemaComponent</title>
<polygon fill="#ffffb3" stroke="black" points="787.82,-122 650.18,-122 650.18,-86 787.82,-86 787.82,-122"/>
<text text-anchor="middle" x="719" y="-99.8" font-family="Times,serif" font-size="14.00">PostTemaComponent</text>
</g>
<!-- PostTemaComponent&#45;&gt;AppModule -->
<g id="edge11" class="edge">
<title>PostTemaComponent&#45;&gt;AppModule</title>
<path fill="none" stroke="black" d="M719,-122.3C719,-140.27 719,-165 719,-165 719,-165 1085.01,-165 1085.01,-165"/>
<polygon fill="black" stroke="black" points="1085.01,-168.5 1095.01,-165 1085.01,-161.5 1085.01,-168.5"/>
</g>
<!-- PutPostagemComponent -->
<g id="node12" class="node">
<title>PutPostagemComponent</title>
<polygon fill="#ffffb3" stroke="black" points="632.44,-122 477.56,-122 477.56,-86 632.44,-86 632.44,-122"/>
<text text-anchor="middle" x="555" y="-99.8" font-family="Times,serif" font-size="14.00">PutPostagemComponent</text>
</g>
<!-- PutPostagemComponent&#45;&gt;AppModule -->
<g id="edge12" class="edge">
<title>PutPostagemComponent&#45;&gt;AppModule</title>
<path fill="none" stroke="black" d="M555,-122.11C555,-141.34 555,-169 555,-169 555,-169 1085.14,-169 1085.14,-169"/>
<polygon fill="black" stroke="black" points="1085.14,-172.5 1095.14,-169 1085.14,-165.5 1085.14,-172.5"/>
</g>
<!-- PutTemaComponent -->
<g id="node13" class="node">
<title>PutTemaComponent</title>
<polygon fill="#ffffb3" stroke="black" points="459.88,-122 328.12,-122 328.12,-86 459.88,-86 459.88,-122"/>
<text text-anchor="middle" x="394" y="-99.8" font-family="Times,serif" font-size="14.00">PutTemaComponent</text>
</g>
<!-- PutTemaComponent&#45;&gt;AppModule -->
<g id="edge13" class="edge">
<title>PutTemaComponent&#45;&gt;AppModule</title>
<path fill="none" stroke="black" d="M394,-122.03C394,-142.77 394,-174 394,-174 394,-174 1085.19,-174 1085.19,-174"/>
<polygon fill="black" stroke="black" points="1085.19,-177.5 1095.19,-174 1085.19,-170.5 1085.19,-177.5"/>
</g>
<!-- SobrenosComponent -->
<g id="node14" class="node">
<title>SobrenosComponent</title>
<polygon fill="#ffffb3" stroke="black" points="309.94,-122 176.06,-122 176.06,-86 309.94,-86 309.94,-122"/>
<text text-anchor="middle" x="243" y="-99.8" font-family="Times,serif" font-size="14.00">SobrenosComponent</text>
</g>
<!-- SobrenosComponent&#45;&gt;AppModule -->
<g id="edge14" class="edge">
<title>SobrenosComponent&#45;&gt;AppModule</title>
<path fill="none" stroke="black" d="M243,-122.29C243,-144.21 243,-178 243,-178 243,-178 1085.08,-178 1085.08,-178"/>
<polygon fill="black" stroke="black" points="1085.08,-181.5 1095.08,-178 1085.08,-174.5 1085.08,-181.5"/>
</g>
<!-- AppComponent  -->
<g id="node17" class="node">
<title>AppComponent </title>
<polygon fill="#80b1d3" stroke="black" points="1191.44,-252 1082.56,-252 1082.56,-216 1191.44,-216 1191.44,-252"/>
<text text-anchor="middle" x="1137" y="-229.8" font-family="Times,serif" font-size="14.00">AppComponent </text>
</g>
<!-- AppModule&#45;&gt;AppComponent  -->
<g id="edge16" class="edge">
<title>AppModule&#45;&gt;AppComponent </title>
<path fill="none" stroke="black" stroke-dasharray="1,5" d="M1137,-187.11C1137,-187.11 1137,-205.99 1137,-205.99"/>
<polygon fill="black" stroke="black" points="1133.5,-205.99 1137,-215.99 1140.5,-205.99 1133.5,-205.99"/>
</g>
<!-- AppRoutingModule -->
<g id="node16" class="node">
<title>AppRoutingModule</title>
<polygon fill="#8dd3c7" stroke="black" points="152.27,-122 149.27,-126 128.27,-126 125.27,-122 23.73,-122 23.73,-86 152.27,-86 152.27,-122"/>
<text text-anchor="middle" x="88" y="-99.8" font-family="Times,serif" font-size="14.00">AppRoutingModule</text>
</g>
<!-- AppRoutingModule&#45;&gt;AppModule -->
<g id="edge15" class="edge">
<title>AppRoutingModule&#45;&gt;AppModule</title>
<path fill="none" stroke="black" d="M88,-122.32C88,-145.66 88,-183 88,-183 88,-183 1085.23,-183 1085.23,-183"/>
<polygon fill="black" stroke="black" points="1085.23,-186.5 1095.23,-183 1085.23,-179.5 1085.23,-186.5"/>
</g>
</g>
</svg>
